/* XPM */
static char * info64x64_xpm[] = {
"64 64 579 2",
"  	c #FFFFFF",
". 	c #FFFFFE",
"+ 	c #FEFFFF",
"@ 	c #FFFEFF",
"# 	c #FFFEFD",
"$ 	c #FFFEFA",
"% 	c #FEFFF7",
"& 	c #FFFFFD",
"* 	c #FFFEFE",
"= 	c #FEFEFE",
"- 	c #FDFEFF",
"; 	c #FEFFFE",
"> 	c #F4FEFC",
", 	c #DEF9FA",
"' 	c #C4E8F4",
") 	c #B7E2F6",
"! 	c #AEDEF5",
"~ 	c #AFDEF4",
"{ 	c #B8E1F4",
"] 	c #C9E8F6",
"^ 	c #E0F9FE",
"/ 	c #F4FEFE",
"( 	c #FDFFFE",
"_ 	c #FDFEFD",
": 	c #FFFFFC",
"< 	c #F8FDFF",
"[ 	c #B9E5F8",
"} 	c #6BCDF1",
"| 	c #37BEEA",
"1 	c #00B7EC",
"2 	c #00B6F1",
"3 	c #00B8F2",
"4 	c #00B7F3",
"5 	c #00B7F1",
"6 	c #00B6EC",
"7 	c #00B7EB",
"8 	c #07B4EC",
"9 	c #34BDF0",
"0 	c #62D0EC",
"a 	c #B1EAFA",
"b 	c #F6FBFE",
"c 	c #FEFFFC",
"d 	c #FEFEFC",
"e 	c #FAFDFE",
"f 	c #C8EEF9",
"g 	c #57C8EC",
"h 	c #09AFEC",
"i 	c #00B5F5",
"j 	c #00B9F7",
"k 	c #00BDF2",
"l 	c #00BFF3",
"m 	c #00BEF2",
"n 	c #00BDF0",
"o 	c #00BEEF",
"p 	c #00BDF1",
"q 	c #00BDF3",
"r 	c #00BFF0",
"s 	c #00C2F3",
"t 	c #00C1F8",
"u 	c #00B8F1",
"v 	c #01B5E3",
"w 	c #5CC9EB",
"x 	c #CEEEFA",
"y 	c #FDFFFD",
"z 	c #FBFEFF",
"A 	c #FFFDFD",
"B 	c #AFE9F7",
"C 	c #31BFF0",
"D 	c #00B2F4",
"E 	c #00BEF7",
"F 	c #00BDF5",
"G 	c #00BDF4",
"H 	c #00BEF5",
"I 	c #00BCF1",
"J 	c #00BCF3",
"K 	c #00BEF4",
"L 	c #00BEF3",
"M 	c #00C0F9",
"N 	c #00B3F1",
"O 	c #3ABBEA",
"P 	c #BAE2F3",
"Q 	c #FFFCFF",
"R 	c #FCFFFF",
"S 	c #FEFFFD",
"T 	c #FEFEFF",
"U 	c #D9F6FC",
"V 	c #43C2EA",
"W 	c #00BAF6",
"X 	c #00BCF8",
"Y 	c #00BCF2",
"Z 	c #00BCF5",
"` 	c #00BBF5",
" .	c #00BBF3",
"..	c #00BDF6",
"+.	c #00BCF4",
"@.	c #00BBF4",
"#.	c #00B8F6",
"$.	c #00B3F2",
"%.	c #42CAF2",
"&.	c #D7F2FA",
"*.	c #FEFFFA",
"=.	c #87D8EC",
"-.	c #00B4F3",
";.	c #00BCF6",
">.	c #00B9F0",
",.	c #8FDAF4",
"'.	c #FFFCFC",
").	c #FBFEFE",
"!.	c #EFFAFC",
"~.	c #52C1EB",
"{.	c #00BFF1",
"].	c #00BAF1",
"^.	c #00BBF2",
"/.	c #00BCF0",
"(.	c #00BDEE",
"_.	c #00B9F4",
":.	c #4CC9E9",
"<.	c #F1FBFC",
"[.	c #FFFDFC",
"}.	c #E0F8FC",
"|.	c #25C1ED",
"1.	c #00BAF4",
"2.	c #00BEED",
"3.	c #10B8EB",
"4.	c #5ACAF0",
"5.	c #92D7F2",
"6.	c #78D8F2",
"7.	c #31BFE9",
"8.	c #00BCEA",
"9.	c #00BBEF",
"0.	c #00BDEF",
"a.	c #00C0F3",
"b.	c #00C0F0",
"c.	c #2ABEE8",
"d.	c #E5F5FB",
"e.	c #FFFDFB",
"f.	c #FBFEFC",
"g.	c #FFFEFC",
"h.	c #DEF7FC",
"i.	c #18B8E8",
"j.	c #00B9EE",
"k.	c #00BCEF",
"l.	c #47C5E6",
"m.	c #F5F5FA",
"n.	c #A8E4F3",
"o.	c #03B5E3",
"p.	c #00BBF0",
"q.	c #00BFF2",
"r.	c #00BDF7",
"s.	c #28BBE1",
"t.	c #E8F3FC",
"u.	c #FBFEF7",
"v.	c #FDFFFF",
"w.	c #FFFEFB",
"x.	c #E3F9FE",
"y.	c #1BB8EE",
"z.	c #00B8EE",
"A.	c #00BBF7",
"B.	c #45BEE8",
"C.	c #FBFFFB",
"D.	c #FDFFFA",
"E.	c #BEE7F6",
"F.	c #00B1F2",
"G.	c #00BEF0",
"H.	c #00BEFA",
"I.	c #00BAF7",
"J.	c #27B9E9",
"K.	c #E9F7F5",
"L.	c #FDFEFE",
"M.	c #FAFAFE",
"N.	c #37BEEE",
"O.	c #00B9F6",
"P.	c #00B8F0",
"Q.	c #00B5EE",
"R.	c #D9F3FC",
"S.	c #3DB6EE",
"T.	c #00BCF7",
"U.	c #35C1EC",
"V.	c #F9FEFE",
"W.	c #FEFEFD",
"X.	c #FCFEFD",
"Y.	c #6CCBEA",
"Z.	c #25BAEB",
"`.	c #99D2EE",
" +	c #00B1ED",
".+	c #00B9F2",
"++	c #00BCFA",
"@+	c #6ACFF4",
"#+	c #FCFEFE",
"$+	c #AFE4F8",
"%+	c #00B9E8",
"&+	c #00BCF9",
"*+	c #3AC1EC",
"=+	c #FFFDFF",
"-+	c #B7DCFB",
";+	c #00ABEA",
">+	c #00B6EE",
",+	c #B5E3F5",
"'+	c #EFFAFA",
")+	c #1CB9F2",
"!+	c #00B8F3",
"~+	c #12BBEF",
"{+	c #FEFDFE",
"]+	c #88CDEE",
"^+	c #00AEF3",
"/+	c #00AFF0",
"(+	c #00B3EF",
"_+	c #00BFF9",
":+	c #11BEEB",
"<+	c #EDFDFC",
"[+	c #FBFDFC",
"}+	c #7AD5F0",
"|+	c #00B6ED",
"1+	c #00B9F8",
"2+	c #CBECF9",
"3+	c #2AADE7",
"4+	c #00ACF2",
"5+	c #00ADEE",
"6+	c #7FD5F3",
"7+	c #FBFEF9",
"8+	c #EAFAFE",
"9+	c #01B2E6",
"0+	c #00BBF1",
"a+	c #01BDF4",
"b+	c #28BBED",
"c+	c #EFFBFD",
"d+	c #FFFDF9",
"e+	c #FEFEFA",
"f+	c #FCFFF8",
"g+	c #80CFF3",
"h+	c #00ABEE",
"i+	c #00AEF0",
"j+	c #00AEF2",
"k+	c #00AFF1",
"l+	c #00B4F1",
"m+	c #00B9F3",
"n+	c #07B8F4",
"o+	c #E9FAFD",
"p+	c #79D2EF",
"q+	c #21C0F1",
"r+	c #C6E8F2",
"s+	c #F3F6F9",
"t+	c #79CAEE",
"u+	c #00ABEC",
"v+	c #00B2F1",
"w+	c #00B0F2",
"x+	c #00AFF2",
"y+	c #00B0F1",
"z+	c #00B0EE",
"A+	c #00B4EF",
"B+	c #00BAF5",
"C+	c #00B8F5",
"D+	c #76D1F0",
"E+	c #F7FBFE",
"F+	c #15B9ED",
"G+	c #00BBF6",
"H+	c #02B3EC",
"I+	c #20AFE7",
"J+	c #48BEF2",
"K+	c #31B5E5",
"L+	c #15A7E4",
"M+	c #00ABE9",
"N+	c #00B0EF",
"O+	c #00B1F1",
"P+	c #00B1F0",
"Q+	c #00B1EF",
"R+	c #00B0F0",
"S+	c #00AFEF",
"T+	c #00B3F3",
"U+	c #0FB7EE",
"V+	c #F1FDFD",
"W+	c #FEFCF9",
"X+	c #B9E2FB",
"Y+	c #00B8F8",
"Z+	c #00C0F4",
"`+	c #00BAF3",
" @	c #00B6F3",
".@	c #00ABF0",
"+@	c #00A7EC",
"@@	c #00B9F1",
"#@	c #ACE2F4",
"$@	c #54C5EA",
"%@	c #00BDFD",
"&@	c #4DC7F4",
"*@	c #93DEF6",
"=@	c #97DBF4",
"-@	c #97DBF3",
";@	c #96DBF5",
">@	c #97DCF4",
",@	c #92D9F4",
"'@	c #90D4F2",
")@	c #93D2F0",
"!@	c #92D2F1",
"~@	c #94CFED",
"{@	c #00ABED",
"]@	c #00B0E8",
"^@	c #00B5F1",
"/@	c #5EC4EB",
"(@	c #FDFFF9",
"_@	c #FAFFFF",
":@	c #0FB2F2",
"<@	c #00BEFB",
"[@	c #8BD7F8",
"}@	c #F1FFFF",
"|@	c #00A1E5",
"1@	c #00ADF4",
"2@	c #00ADF1",
"3@	c #00ADF0",
"4@	c #00AEEF",
"5@	c #00B1EE",
"6@	c #0BB4E8",
"7@	c #F9FFFE",
"8@	c #FEFDFF",
"9@	c #DFF2F9",
"0@	c #00BFF6",
"a@	c #8AD5F5",
"b@	c #F6FFFF",
"c@	c #00A1E8",
"d@	c #00ACF0",
"e@	c #00ADF3",
"f@	c #D8EEFB",
"g@	c #FFFFF3",
"h@	c #99DDF8",
"i@	c #8BD5F5",
"j@	c #F9FFFF",
"k@	c #00A3E4",
"l@	c #00ACEE",
"m@	c #00B3F0",
"n@	c #00B9F5",
"o@	c #00BFF5",
"p@	c #93DBF0",
"q@	c #FFFFFA",
"r@	c #5FCDF3",
"s@	c #8DD6F8",
"t@	c #FCFFFE",
"u@	c #F8FFFF",
"v@	c #00A3E6",
"w@	c #00ADEF",
"x@	c #00ADF2",
"y@	c #00B4F2",
"z@	c #00B8F4",
"A@	c #5AD2F2",
"B@	c #4BC2EC",
"C@	c #00BEF6",
"D@	c #46C4EE",
"E@	c #93D7F0",
"F@	c #91D7F2",
"G@	c #B5D9EB",
"H@	c #FCFFFD",
"I@	c #00A2E6",
"J@	c #00ACEF",
"K@	c #00B5F2",
"L@	c #49C7EB",
"M@	c #3DC1EF",
"N@	c #00BAF2",
"O@	c #00B7EF",
"P@	c #3AB9E3",
"Q@	c #00ABEF",
"R@	c #00AEF1",
"S@	c #40C3ED",
"T@	c #2FBBF1",
"U@	c #3DBAE3",
"V@	c #F7FFFF",
"W@	c #34BBED",
"X@	c #30BCF4",
"Y@	c #3FBFE7",
"Z@	c #31B7ED",
"`@	c #FFFDFE",
" #	c #32B9EF",
".#	c #43C4E9",
"+#	c #00B5F3",
"@#	c #36BCF0",
"##	c #3DC1EE",
"$#	c #42C6EA",
"%#	c #38BDEB",
"&#	c #45C4EB",
"*#	c #41C6ED",
"=#	c #00B7F4",
"-#	c #44C4E9",
";#	c #5ACEEF",
">#	c #42C5ED",
",#	c #00B2EE",
"'#	c #63CAF0",
")#	c #98D9F2",
"!#	c #01AFF8",
"~#	c #98D3F6",
"{#	c #D3EEF8",
"]#	c #00B6F2",
"^#	c #42C4EC",
"/#	c #00B0F3",
"(#	c #00A8EE",
"_#	c #CFECF9",
":#	c #FAFEFF",
"<#	c #F5FFFD",
"[#	c #05B3EE",
"}#	c #00AFF3",
"|#	c #00AEF4",
"1#	c #0DA6DF",
"2#	c #FBFFFF",
"3#	c #FDFFFB",
"4#	c #4DC9EC",
"5#	c #44C6E7",
"6#	c #00B1F4",
"7#	c #4AB7EF",
"8#	c #ABE1F1",
"9#	c #00BCED",
"0#	c #43C6E8",
"a#	c #A7DAEF",
"b#	c #15B6ED",
"c#	c #00AFF4",
"d#	c #0DA3E8",
"e#	c #F5FEFF",
"f#	c #6FCBEE",
"g#	c #00BBF9",
"h#	c #45C3EC",
"i#	c #00A2E7",
"j#	c #00AFEE",
"k#	c #70C3EA",
"l#	c #EAF8FA",
"m#	c #00ACE9",
"n#	c #44C3EE",
"o#	c #009FE8",
"p#	c #00ADEB",
"q#	c #00A2D9",
"r#	c #E4F6FA",
"s#	c #71CEEF",
"t#	c #45BEEA",
"u#	c #009FE4",
"v#	c #00A9EC",
"w#	c #00AFEC",
"x#	c #6AC7E8",
"y#	c #FFFFFB",
"z#	c #EDFBFC",
"A#	c #0DBAF4",
"B#	c #5ACCF8",
"C#	c #A0DFF3",
"D#	c #98DFF4",
"E#	c #B9E0EF",
"F#	c #FCFEFF",
"G#	c #F8FBFA",
"H#	c #98D2EE",
"I#	c #9DD4F0",
"J#	c #A0D8EF",
"K#	c #1EB1EC",
"L#	c #00B0ED",
"M#	c #08A8DF",
"N#	c #EEF9FC",
"O#	c #FCFFFC",
"P#	c #A2E0F6",
"Q#	c #00B9EF",
"R#	c #87D7F5",
"S#	c #F9FEFF",
"T#	c #39B6E6",
"U#	c #00ABE0",
"V#	c #A7D9F4",
"W#	c #63C7EE",
"X#	c #00C0F7",
"Y#	c #00B9ED",
"Z#	c #88D5F3",
"`#	c #38B6E4",
" $	c #00B1F3",
".$	c #56C2E9",
"+$	c #F1FFFE",
"@$	c #2CBEE6",
"#$	c #00C0FB",
"$$	c #88D5F5",
"%$	c #38B5E5",
"&$	c #3DABF0",
"*$	c #F9FAFE",
"=$	c #FCFEFC",
"-$	c #EAF6FC",
";$	c #1AB7E8",
">$	c #00BFF8",
",$	c #87D6F5",
"'$	c #3AB5E6",
")$	c #13A8DF",
"!$	c #E7F1FB",
"~$	c #DAF3F8",
"{$	c #1FBBF0",
"]$	c #4CC8F4",
"^$	c #A0DAED",
"/$	c #A0DAEE",
"($	c #A3DAEE",
"_$	c #A3D9EE",
":$	c #A3D8EF",
"<$	c #A3D9F0",
"[$	c #A3D8F0",
"}$	c #A1D8EF",
"|$	c #A1D8F0",
"1$	c #A2D8F1",
"2$	c #22B2EC",
"3$	c #03ABEE",
"4$	c #0CA7E7",
"5$	c #D5F0FB",
"6$	c #FEFFFB",
"7$	c #DCF4F9",
"8$	c #1ABAE6",
"9$	c #00BEF8",
"0$	c #00B7F0",
"a$	c #00B0EB",
"b$	c #00ACE7",
"c$	c #00A8ED",
"d$	c #00A8F1",
"e$	c #00A8F2",
"f$	c #00A9F0",
"g$	c #00A9EB",
"h$	c #00A9ED",
"i$	c #00AEEE",
"j$	c #00AEEC",
"k$	c #00ACED",
"l$	c #01A8EB",
"m$	c #1EA9E7",
"n$	c #D1EDF9",
"o$	c #F5FEF9",
"p$	c #FEFEF7",
"q$	c #E5F5FC",
"r$	c #3EC5EE",
"s$	c #00B5EF",
"t$	c #00AEEA",
"u$	c #00B3EA",
"v$	c #3BB5E9",
"w$	c #EDF2FB",
"x$	c #72D2F0",
"y$	c #00B4F0",
"z$	c #00ADED",
"A$	c #00A7E1",
"B$	c #6FC8E8",
"C$	c #F5FDFD",
"D$	c #C0ECF8",
"E$	c #2EC3EE",
"F$	c #00B2F0",
"G$	c #00B1EC",
"H$	c #2BB3E4",
"I$	c #C3E7F4",
"J$	c #F8FEFD",
"K$	c #A3E2F6",
"L$	c #27BCEF",
"M$	c #00A6EB",
"N$	c #28AEEA",
"O$	c #9FD7ED",
"P$	c #F9FDFE",
"Q$	c #F8FDFD",
"R$	c #AEE7F6",
"S$	c #3EC6F0",
"T$	c #01B1E9",
"U$	c #00B8EF",
"V$	c #00BFF7",
"W$	c #00B1F6",
"X$	c #00B0F4",
"Y$	c #06A5EC",
"Z$	c #45B8ED",
"`$	c #B1E0F3",
" %	c #FAFCFF",
".%	c #E7F3F6",
"+%	c #A8E3F4",
"@%	c #50C5EE",
"#%	c #2BBCEF",
"$%	c #00B5E9",
"%%	c #00B5F6",
"&%	c #00B6F5",
"*%	c #00B4EE",
"=%	c #00AAEE",
"-%	c #029EEC",
";%	c #25AEF0",
">%	c #52BDE3",
",%	c #ACD8F2",
"'%	c #E8F5FC",
")%	c #F8FCFE",
"!%	c #E2F8FC",
"~%	c #CEF3FB",
"{%	c #B8E5F7",
"]%	c #ACDFF7",
"^%	c #A2D8F4",
"/%	c #A2D7F3",
"(%	c #AAD9F4",
"_%	c #B4D9F2",
":%	c #D3EBF7",
"<%	c #EDF8FD",
"[%	c #F8FBFE",
"                                                                                                                                ",
"                                                                                                                                ",
"                                                                                                                                ",
"                                      . . + . @   # $ % .   . &     . . * = + - @ . +   . . .                                   ",
"                                      + . @ + ; &   ; > , ' ) ! ~ { ] ^ / & * # ;   @ @ + +                                     ",
"                                      & ( _ : < [ } | 1 2 3 4 3 3 5 6 7 8 9 0 a b c . d * + ;                                   ",
"                                      . e f g h i j k l m k n o o p q k r s t u v w x     # & +                                 ",
"                        @ & + y z A _ B C D p r q E F G H q p p I J q K F J p n L M N O P ; Q . ; * R                           ",
"                        S T # + = U V 2 W X J Y Y G Z ` ` J Y I  .J F ..Z +.J Y k J @.#.$.%.&.  = . .                           ",
"                      @ T *.c & =.-.;.k ;.k n K J J G +.Z L Y k G +.+.+.J I q I p Y I J o E >.,.  '.).+                         ",
"                        & @ !.~.o +.Z Z I k {.H G q I I q L I ].^.q Y J Y /.q Y J Y p I (.r m _.:.<.[.=                         ",
"                . & @ ; & }.|.1._.X +.Y k G G +.+.k ..` 2.3.4.5.6.7.8.].` 9.q Y I I p 0.q m m a.b.c.d.e.f.g.;                   ",
"                . T S   h.i.j.k.Y J J J J J J +.q +.J m l.m.        n.o.p.` q.J k Y I I I Y Y q F r.s.t.u.v.=                   ",
"                @ c w.x.y.5 z.^.k J J J J J J J Y A.F B.  C.S = ( D.  E.F.A.G.J J Y I I Y J F ..Z H.I.J.K.# L.                  ",
"              . . ; M.N.O.W P.p.p J J k J J J Y q ` Q.R.* . @ d # T ; . S.W ^.J G J I /.J F Z ;.;.T.` I U.V.W.                  ",
"                X.( Y.O.` J I Y Y J J J J J J k G k Z.  ; + ; S +   . @ `. +.+k G J I Y J F +.` F Z +.++ .@+.   & +             ",
"                #+$+%+&+J Y J q J J J J J J J Y q q *+: =+            =+-+;+>+@.+.k k Y J +.F F F F F J r..+,+  + # +           ",
"                '+)+!+W J k J Z F J J J J J J Y ..9.~+. @ {+  +       & ]+^+/+(+1. .k Y J J +.J J J J q r._+:+<+[+= *           ",
"                }+|+1+J J k J F +.F J J J J J J F ^.z.2+v.  = ; ;       3+F.4+5+$.1.@.J J J J J J J J k ..L _.6+- S @           ",
"          = 7+8+9+0+O.A.A.+.Y k J J J J J J J J q J a+b+c+d+e+c =+f+. g+h+F.i+j+k+l+m+J J G F J J J J J J G +.n+o+* ;           ",
"        ; # c p+@.Z j ;.` J I I J J J J J J J J J q q (.q+r+      s+t+u+v+w+k+x+y+z+A+B+@.F J J J J J J J J J C+D+  @           ",
"        = . E+F+G+..Z K Y p Y J J J J J J J J J J J ^.;.G.H+I+J+K+L+M+N+O+P+Q+w+R+S+P+T+W @.+.J J J J J J J q ` U+V+W+          ",
"        + & X+Y+X E Z+L k I F Z J J J J J J J J J  .`  .`+ @N x+.@+@M+u+S+Q+N+O+R+y+F.w+$._.` J J J J J J J J G @@#@*.          ",
"        &   $@%@T.Z q m q J J J J J J J J J J ..P.&@*@=@-@;@>@,@'@)@!@~@{@]@k+i+i+k+i+N+N+^@1.Z J J +.J J J J G F /@(@          ",
"        g._@:@<@G Z J J J J J J J J J J J J J Y 3 [@: . & & & & & & & }@|@1@j+2@2@3@4@4@S+5@^@_.+.J k J J J J Y Z 6@7@          ",
"        8@9@-.0@L J J J J J J J J J J J J J J G 3 a@: . . . . . ; ; . b@c@d@z+e@3@3@4@4@S+S+Q+^@m++.+.J J J J J G P+f@          ",
"      . g@h@r 0@L Y k I J J J q J J J J J J J +.@@i@: ;   ; ;   . . ; j@k@l@R+N+4@4@3@/+S+S+N+S+m@n@G++.J J J G I o@p@          ",
"        q@r@Z+0@..q q I J G J J J J J J J J J J 3 s@e.t@e+=   .       u@v@w@Q+/+4@2@x@2@3@3@3@S+N+y@z@` Z J +.+.q q.A@          ",
"        # B@E C@J J q I J G J J J J J J J J J J !+D@E@F@G@H@= @       u@I@J@N+k+3@3@x@3@3@3@3@S+/+y+K@`+Z J J J q J L@          ",
"        v.M@_+q G J J q J J J J J J J J J J J J G+N@O@m@P@+ * .       u@v@Q@S+^+2@3@3@3@3@3@3@i+R@k+N+l+m++.+.+.q Z S@+ *       ",
"        ; T@&+q Y J J q J J J J J J J J J J J k q @.@. @U@. T .       V@v@Q@4@^+x@3@4@4@3@3@3@3@j+^+y+S+l+1.B++.k O.W@  ;       ",
"        ; X@^.Y p F Z Z Z q J J J J J J J J J J J J J J Y@  @ .       u@I@h+S+i+3@3@3@3@3@3@3@3@3@3@3@S+N+y@m+G+..].Z@+ `@+ @   ",
"        +  #q k I F +.+...q J J J J J J J J J J J J J q .#. T .       V@v@l@S+/+3@3@3@3@3@3@3@3@3@3@3@i+k+y++#C+@.1.@#+ `@+ @   ",
"          ##l m J +.G Y J J J J J J J J J J J J J J J K $#; @ .       u@v@5+Q+R+3@3@3@3@3@3@3@3@3@3@3@R@j+^+S+l+.+I.%#+ @ + @   ",
"        S &#a.K F +.J k k +.G J J J J J J J J J J J J H *#+ T *       u@I@5+Q+/+i+3@3@3@3@3@3@3@3@3@3@R@R@R@S+R+A+=#-#+ @ + @   ",
"          ;#Z+l p Z Z +.+.J J J J J J J J J J J J J J H >#( @ .       u@v@l@S+/+3@3@3@3@3@3@3@3@3@3@3@3@3@3@4@N+,#1.'#          ",
"        # )#F l J Z Z Z J J J J J J J J J J J J J J J H >#+ @ .       u@v@l@N+/+3@3@3@3@3@3@3@3@3@3@3@3@3@3@3@S+Q+!#~#          ",
"        * {#]#G +.@.G Y J J J J J J J J J J J J J J J F ^#. T .       u@I@5+Q+/+3@3@3@3@3@3@3@3@3@3@3@3@3@3@2@x+/#(#_#          ",
"        :#<#[#G G J I k.J J J J J J J J J J J J J J J G .#. @ ;       u@I@5+Q+R+3@3@3@3@3@3@3@3@3@3@3@3@3@3@x@}#|#1#2#          ",
"        3#. 4#Y Y L I Y J J J J J J J J J J J J J J J H 5#  S @       u@v@l@S+/+3@3@3@3@3@3@3@3@3@3@3@3@3@3@3@j+6#7#: .         ",
"        @   8#9#+.J Y I J J J J J J J J J J J J J J J K 0#  S @       u@v@l@N+/+3@3@3@3@3@3@3@3@3@3@3@3@3@3@3@4@4+a#&           ",
"        = ; < b#G+` J I J J J J J J J J J J J J J J J F .#  & @       u@I@5+Q+/+3@3@3@3@3@3@3@3@3@3@3@3@3@3@3@c#d#e#T           ",
"        = ; ; f#g#G+G /.J J J J J J J J J J J J J J J X h#  ; @       u@i#5+Q+/+3@3@3@3@3@3@3@3@3@3@3@3@3@2@3@j#k#v.d           ",
"          + * l#m#W I k J J J J J J J J J J J Y +.G m Z n#* = &       b@o#p#i+^+3@3@x@3@3@3@3@3@3@3@3@i+2@3@3@q#r#  ;           ",
"        . v.*   s#M k q J J J J J J J J J J J G J .+`+G+t#( S @       u@u#h+v#j+2@3@3@3@3@3@3@3@3@3@3@R@e@w#w@x#y#* *           ",
"        . + . . z#A#l q G J J J J J J J J J J J u B#C#D#E#F#: @       G#H#I#J#K#3@3@3@3@3@3@3@3@3@3@3@w@2@L#M#N#=+O##           ",
"        @ @ S + L.P#5 L J G J J J J J J J J J n Q#R#y#. H@S#& &   . . @ . : *.T#w@R@x@3@3@3@3@3@i+3@3@x@d@U#V#.   # T           ",
"                -   W#X#F q C@L J +.+.J q F /.k.Y#Z#; R v.L.T ; ; ; ; @ = = _ `#3@R@w@3@3@3@3@2@4@x@3@ $3@.$                    ",
"                : S +$@$F #$k r.J J J J J J I k.j.$$: ; ; ; + = ; ; .   ; L._ %$k+R@4@3@3@3@3@i+J@e@R@5+&$*$=$                  ",
"                ; @ * -$;$>$H q F J J J J J J G 0+,$  Q @ @ @ @ @ @ @ * @ `@=+'$k+i+i+i+3@3@3@/+w@R@5+)$!$. :                   ",
"                # ( A . ~${$I &+F q +.Y J J J J ;.]$^$/$($_$:$<$[$:$_$:$}$|$1$2$y+k+i+i+2@2@3@i+3$/+4$5$6$  ;                   ",
"                      + ).7$8$9$F q q G J J J J J 0$a$b$m#c$d$e$f$v#g$h$c$v#g$5+4@i+i+2@i+i$j$k$l$m$n$: c &                     ",
"                      . o$p$q$r$n@<@r.L J J J J J  .3 s$,#k+e@e@j+R@R@x@x@3@i+w@J@3@3@4@i+.@t$u$v$w$`@: &                       ",
"                        * =+* R x$|+H C@J J J J J  .`+@@u y$N+S+4@4@i+/+S+S+S+R@R@R@i+j+z$(+A$B$C$A 6$                          ",
"                        ; * y =   D$E$W F J Z +.G k J N@3 ^@F$/+R@R@R@j+x@x@k+x+y+F.y+G$h$H$I$  = . ;                           ",
"                              . . . J$K$L$$.k q q ..+.J `+3 l+F.F.R+N+/+w+w+j#z+k+/+M$N$O$P$: .                                 ",
"                              + + = = . Q$R$S$T$U$L V$9$G 1.4 2 v+j+^+W$X$w+y+x@Y$Z$`$ %. W.T                                   ",
"                                & + v.* T # $ .%+%@%#%$%%%&%A+*%z+=%Q@h+-%;%>%,%'%w.: D.S * S                                   ",
"                                  . & v.. & _ H@.   )%!%~%{%]%^%/%(%_%:%<%[%    `@    # + ;                                     ",
"                                                        .                                                                       ",
"                                                            = = =                                                               ",
"                                                                                                                                ",
"                                                                                                                                ",
"                                                                                                                                "};
