/* XPM */
static char * mini_icon_eye_slashed_xpm[] = {
"16 14 73 1",
" 	c None",
".	c #FFFFFF",
"+	c #F7FFFF",
"@	c #FFFFF7",
"#	c #AFAF99",
"$	c #C3E0F4",
"%	c #FFF9EA",
"&	c #996741",
"*	c #152E50",
"=	c #A48870",
"-	c #634D73",
";	c #6C5742",
">	c #4F7877",
",	c #878BA6",
"'	c #BBD5EA",
")	c #C6EFFF",
"!	c #DFB16F",
"~	c #1E1D1D",
"{	c #180000",
"]	c #000000",
"^	c #001A2C",
"/	c #697F92",
"(	c #DBF2FF",
"_	c #F1E4D4",
":	c #704A23",
"<	c #D4EEFF",
"[	c #FFFFEE",
"}	c #A68557",
"|	c #204970",
"1	c #8C4C18",
"2	c #000019",
"3	c #EBD7B7",
"4	c #8E5622",
"5	c #4A6791",
"6	c #EAF9FF",
"7	c #D6A472",
"8	c #A8D0EF",
"9	c #9C5F1D",
"0	c #D1E8FD",
"a	c #D6B494",
"b	c #F7CF8D",
"c	c #7DB3DD",
"d	c #B98D5F",
"e	c #ADEBFF",
"f	c #EFBA7B",
"g	c #253D63",
"h	c #C5F4FF",
"i	c #DEB283",
"j	c #739CCD",
"k	c #F4E1C4",
"l	c #592D15",
"m	c #5B9BD6",
"n	c #FFF0DE",
"o	c #805F34",
"p	c #F5D6A1",
"q	c #300000",
"r	c #184084",
"s	c #E7C7A1",
"t	c #421800",
"u	c #98C1E8",
"v	c #AD7549",
"w	c #E5BE92",
"x	c #283C43",
"y	c #DFCDB6",
"z	c #5F3E21",
"A	c #414563",
"B	c #435C53",
"C	c #634541",
"D	c #002552",
"E	c #C3A78A",
"F	c #565341",
"G	c #40586D",
"H	c #BAB8B5",
"....+.@+.@+@....",
".@#$........+...",
".%&*$@=-;>,'....",
"...&*)!~~{]^/(@.",
"+._:]*<..[}{]|(.",
".%1]2~*)3,.4]]56",
"@7]]289*0a8b{]2c",
".d]]2ef]gh.i]]]j",
".kl]]mno]*)pq]r6",
"..st]^u.@v*)wx$.",
"...yz]]ABC]D<@.+",
"..@.%EF~~~G;*$..",
".....+.@...[&*).",
"......+...@+[H(."};
