/* XPM */
static char * mini_icon_eye_ok_xpm[] = {
"16 14 64 1",
" 	c None",
".	c #FFFFFF",
"+	c #FFFFF7",
"@	c #F7FFFF",
"#	c #FFF0DE",
"$	c #A58F8F",
"%	c #6D8061",
"&	c #634D73",
"*	c #697F92",
"=	c #B4BEC1",
"-	c #B79E74",
";	c #403420",
">	c #000000",
",	c #190019",
"'	c #180000",
")	c #000019",
"!	c #414563",
"~	c #A8D0EF",
"{	c #AD7549",
"]	c #2A5372",
"^	c #D4EEFF",
"/	c #D6B494",
"(	c #392500",
"_	c #001A2C",
":	c #A6B7E7",
"<	c #152E50",
"[	c #DBF2FF",
"}	c #F5D6A1",
"|	c #4A6791",
"1	c #E7FFFF",
"2	c #DEB283",
"3	c #001846",
"4	c #C3E0F4",
"5	c #FFE0B5",
"6	c #421800",
"7	c #3A83C6",
"8	c #FFF3CE",
"9	c #3E6FA8",
"0	c #FFFFDE",
"a	c #4D2400",
"b	c #21629B",
"c	c #EBD7B7",
"d	c #210000",
"e	c #52A1C7",
"f	c #FFE3C3",
"g	c #FFF9EA",
"h	c #5F3E21",
"i	c #204970",
"j	c #A66F3C",
"k	c #184175",
"l	c #EFFFFF",
"m	c #D6A472",
"n	c #98C1E8",
"o	c #704A23",
"p	c #5687A6",
"q	c #FFEDC1",
"r	c #739CCD",
"s	c #8F684F",
"t	c #565341",
"u	c #281800",
"v	c #8BA8C8",
"w	c #DFCDB6",
"x	c #6C5742",
"y	c #1E1D1D",
".....+@.+@+.....",
"...+........@...",
"....#$%&%*=@....",
"..+-;>>,'>)!~.+.",
".+{>>]^../(>_:.@",
".-'><[};|12'>34.",
"56>>786>>90a>>b+",
"cd>>efd>>bgh>>i.",
"+j>>klm><4}d>)n.",
".#o>)p.+.qh>)r..",
"..#s'><ttu>_v.+.",
"....wx;yy!*[....",
"...@....@.......",
".....+@...+....."};
