/* XPM */
static char * stop64x64_xpm[] = {
"64 65 266 2",
"  	c None",
". 	c #F8BABA",
"+ 	c #FACCCE",
"@ 	c #F9C3C4",
"# 	c #F9BEBF",
"$ 	c #F8C2C3",
"% 	c #F9C3C5",
"& 	c #F9C2C3",
"* 	c #F8C0C1",
"= 	c #F9C0C2",
"- 	c #F9C7C8",
"; 	c #FACFD0",
"> 	c #F7ACAC",
", 	c #F9C4C5",
"' 	c #FDEBEB",
") 	c #FFFFFF",
"! 	c #FACECF",
"~ 	c #F8BBBC",
"{ 	c #F28486",
"] 	c #F9C2C4",
"^ 	c #FCE6E6",
"/ 	c #F59EA0",
"( 	c #F38D8F",
"_ 	c #FEF1F1",
": 	c #FBD5D5",
"< 	c #F49598",
"[ 	c #F07578",
"} 	c #EE6063",
"| 	c #EC4A4E",
"1 	c #EE5659",
"2 	c #F06B6E",
"3 	c #F28083",
"4 	c #F7AFB1",
"5 	c #FAC8C9",
"6 	c #FCE2E3",
"7 	c #F59FA2",
"8 	c #F6ABAE",
"9 	c #EA363B",
"0 	c #E9282C",
"a 	c #E92D31",
"b 	c #EA3236",
"c 	c #EA3438",
"d 	c #EA3337",
"e 	c #EA2F33",
"f 	c #E92B2F",
"g 	c #E82226",
"h 	c #F17679",
"i 	c #FEF8F8",
"j 	c #F49C9D",
"k 	c #F6A6A8",
"l 	c #FFFCFC",
"m 	c #F7B0B2",
"n 	c #E92E31",
"o 	c #EA2E32",
"p 	c #EA3135",
"q 	c #E81D21",
"r 	c #F28487",
"s 	c #FAD2D3",
"t 	c #FEF9F9",
"u 	c #F49295",
"v 	c #FDEDED",
"w 	c #FFFDFD",
"x 	c #F59FA1",
"y 	c #E81E23",
"z 	c #EA2D31",
"A 	c #EF5C60",
"B 	c #FAD4D5",
"C 	c #F6A9AA",
"D 	c #F3878A",
"E 	c #E9262B",
"F 	c #EA2C30",
"G 	c #F06E71",
"H 	c #FEF7F7",
"I 	c #FFFEFE",
"J 	c #FBD9DB",
"K 	c #F49596",
"L 	c #FEF9FA",
"M 	c #ED484B",
"N 	c #F9C6C7",
"O 	c #FEFDFE",
"P 	c #F6A8A9",
"Q 	c #FBDCDD",
"R 	c #E82024",
"S 	c #EA3136",
"T 	c #F38C8E",
"U 	c #F7AEAF",
"V 	c #F8BABB",
"W 	c #E92C30",
"X 	c #EB4044",
"Y 	c #F6A3A4",
"Z 	c #F7ACAD",
"` 	c #EB393D",
" .	c #FFFBFB",
"..	c #FFF9F9",
"+.	c #F48F92",
"@.	c #F7B4B5",
"#.	c #EB383B",
"$.	c #FBD1D3",
"%.	c #F9C5C6",
"&.	c #EC484A",
"*.	c #F6A9AB",
"=.	c #FAD5D6",
"-.	c #FCE4E5",
";.	c #E9262A",
">.	c #F28587",
",.	c #F38B8D",
"'.	c #FEF5F5",
").	c #F39193",
"!.	c #E9272C",
"~.	c #F5999A",
"{.	c #F7B5B6",
"].	c #FBD8D8",
"^.	c #F06B6D",
"/.	c #EB3D41",
"(.	c #FACACB",
"_.	c #F49597",
":.	c #F9C9CB",
"<.	c #EE575B",
"[.	c #FFFCFB",
"}.	c #FEF2F2",
"|.	c #EB4144",
"1.	c #F9C8CA",
"2.	c #F59899",
"3.	c #FBD6D7",
"4.	c #F07072",
"5.	c #FBD8D9",
"6.	c #F5A3A5",
"7.	c #F17B7D",
"8.	c #EA3437",
"9.	c #E82327",
"0.	c #F7B6B8",
"a.	c #F7B6B7",
"b.	c #EE595C",
"c.	c #F9C7C9",
"d.	c #F6A7A9",
"e.	c #F38E90",
"f.	c #E92428",
"g.	c #FEF5F6",
"h.	c #ED5659",
"i.	c #EE5B5E",
"j.	c #F06D71",
"k.	c #F06F72",
"l.	c #EB373B",
"m.	c #FBD3D4",
"n.	c #FDF0F0",
"o.	c #E82328",
"p.	c #FBDBDC",
"q.	c #EF6467",
"r.	c #F6ACAE",
"s.	c #FFFAFA",
"t.	c #FDECEC",
"u.	c #E82428",
"v.	c #F49193",
"w.	c #FACDCE",
"x.	c #EA3338",
"y.	c #F49294",
"z.	c #ED4E51",
"A.	c #F7AAAC",
"B.	c #F9BFC1",
"C.	c #F5A4A6",
"D.	c #F59D9F",
"E.	c #E92E32",
"F.	c #F9C4C6",
"G.	c #F6A5A7",
"H.	c #EA3034",
"I.	c #F9C1C2",
"J.	c #F7ABAD",
"K.	c #FEFCFC",
"L.	c #EE575A",
"M.	c #FAC7C8",
"N.	c #FEF3F3",
"O.	c #F38F92",
"P.	c #FAD1D1",
"Q.	c #E9292D",
"R.	c #F1777A",
"S.	c #FDEEEE",
"T.	c #FEF4F4",
"U.	c #FCE1E2",
"V.	c #F7B1B2",
"W.	c #F6A8AA",
"X.	c #EF5F62",
"Y.	c #E92A2E",
"Z.	c #E9282D",
"`.	c #FBDADB",
" +	c #F6A0A2",
".+	c #F49497",
"++	c #E92429",
"@+	c #F0696C",
"#+	c #FBD7D8",
"$+	c #EA3639",
"%+	c #F8BBBD",
"&+	c #F48F91",
"*+	c #F38A8C",
"=+	c #E82125",
"-+	c #FDF1F2",
";+	c #FCE5E6",
">+	c #F38587",
",+	c #F7B3B5",
"'+	c #EE5458",
")+	c #E9292E",
"!+	c #FBD9D9",
"~+	c #E92C31",
"{+	c #F06C6F",
"]+	c #FBD6D6",
"^+	c #EE5C60",
"/+	c #FCDFDF",
"(+	c #F27E81",
"_+	c #FDE8E8",
":+	c #E82529",
"<+	c #FACACC",
"[+	c #F8BFC1",
"}+	c #F6A4A6",
"|+	c #EE5558",
"1+	c #F5A2A4",
"2+	c #FFFAFB",
"3+	c #FDEAE9",
"4+	c #FBDBDB",
"5+	c #FACBCC",
"6+	c #E92B30",
"7+	c #EE5A5D",
"8+	c #F9CACB",
"9+	c #E8262A",
"0+	c #EF5D61",
"a+	c #F49698",
"b+	c #E81F23",
"c+	c #F17275",
"d+	c #F59A9C",
"e+	c #F8B8B9",
"f+	c #F4989B",
"g+	c #F17D7F",
"h+	c #E92A2F",
"i+	c #FCDFE0",
"j+	c #F5999B",
"k+	c #EB4245",
"l+	c #F17C7F",
"m+	c #F8BEBF",
"n+	c #EA373B",
"o+	c #F49092",
"p+	c #F8BCBE",
"q+	c #F9C3C6",
"r+	c #F06A6E",
"s+	c #E92529",
"t+	c #F7ADAF",
"u+	c #FDEEEF",
"v+	c #F6A2A4",
"w+	c #F49496",
"x+	c #FEF0F0",
"y+	c #F8BFC0",
"z+	c #F17477",
"A+	c #EC4245",
"B+	c #FAD3D4",
"C+	c #F6A1A2",
"D+	c #F3898B",
"E+	c #FCE3E3",
"F+	c #FAD3D3",
"G+	c #F49395",
"H+	c #F28082",
"I+	c #F38A8D",
"J+	c #F59C9E",
"K+	c #FFF9FA",
"L+	c #FCE4E4",
"M+	c #FACECE",
"N+	c #F49799",
"O+	c #FEF7F8",
"P+	c #FDE7E8",
"Q+	c #F9C8C9",
"                                                    . + @ # $ % & * = - ;                                                       ",
"                                            > , ' ) ) ) ) ) ) ) ) ) ) ) ) ) ) ! ~                                               ",
"                                      { ] ) ) ) ) ) ) ) ) ) ) ) ) ) ) ) ) ) ) ) ) ) ^ /                                         ",
"                                  ( ' ) ) ) ) ) ) _ : ~ < [ } | 1 2 3 4 5 6 ) ) ) ) ) ) ) 7                                     ",
"                                ' ) ) ) ) ) : 8 9 0 a b c c d d d d c c e f g h @ i ) ) ) ) ) j                                 ",
"                            k ) ) ) ) l m n o d d d d d d d d d d d d d d d d d p q r s ) ) ) ) t u                             ",
"                          v ) ) ) w x y d d d d d d d d d d d d d d d d d d d d d d d z A B ) ) ) ) C                           ",
"                      D ) ) ) ) @ E c d d d d d d d d d d d d d d d d d d d d d d d d d d F G H ) ) I J                         ",
"                    K ) ) ) L M b d d d d d d d d d d d d d d d d d d d d d d d d d d d d d d 0 N ) ) ) O                       ",
"                  P ) ) ) Q R d d d d d d d d d d d d d d d d d d d d d d d d d d d d d d d d d S T ) ) ) )                     ",
"                U ) ) ) V W d d d d d d d d d d d d d d d d d d d d d d d d d d d d d d d d d d d c X I ) ) )                   ",
"              Y ) ) ) Z p d d d d d d d d d d d d d d d d d d d d d d d d d d d d d d d d d d d d d d `  .) ) ..                ",
"            +.) ) ) @.b d d d d d d d d d d d d d d d d d d d d d d d d d d d d d d d d d d d d d d d d #.) ) ) $.              ",
"            ) ) ) %.o d d d d d d d d d d d d d d d d d d d d d d d d d d d d d d d d d d d d d d d d d d &.) ) ) *.            ",
"          =.) ) -.;.d d d d d d d d d d d d d d d d d d d d d d d d d d d d d d d d d d d d d d d d d d d c >.) ) )             ",
"        ,.) ) ) d d d d d d d d d d d d d d d d d d d d d d d d d d d d d d d d d d d d d d d d d d d d d d p N ) ) ^           ",
"        '.) ) ).d d d d d d d d d d d d d d d d d d d d d d d d d d d d d d d d d d d d d d d d d d d d d d d !.H ) ) ~.        ",
"      {.) ) ].f d d d d d d d d d d d d d d d d d d d d d d d d d d d d d d d d d d d d d d d d d d d d d d d d ^.) ) )         ",
"      ) ) ) /.d d d d d d d d d d d d d d d d d d d d d d d d d d d d d d d d d d d d d d d d d d d d d d d d d z (.) ) _.      ",
"    {.) ) :.e d d d d d d d d d d d d d d d d d d d d d d d d d d d d d d d d d d d d d d d d d d d d d d d d d d <.) ) [.      ",
"    }.) ) |.d d d d d d d d d d d d d d d d d d d d d d d d d d d d d d d d d d d d d d d d d d d d d d d d d d d z 1.) ) 2.    ",
"    ) ) 3.W d d d d d d d d d d d d d d d d d d d d d d d d d d d d d d d d d d d d d d d d d d d d d d d d d d d d 4.) ) 5.    ",
"  6.) ) 7.8.d d d d d d d d d d d d d d d d d d d d d d d d d d d d d d d d d d d d d d d d d d d d d d d d d d d d 9.}.) )     ",
"  ) ) ) z d d d d d d d d d d d d d d d d d d d d d d d d d d d d d d d d d d d d d d d d d d d d d d d d d d d d d b 0.) ) a.  ",
"  ) ) @ a d d d d d d d d d d d d d d d d d d d d d d d d d d d d d d d d d d d d d d d d d d d d d d d d d d d d d d b.) ) c.  ",
"d.) ) e.d d d d d d d d d d d d d d d d d d d d d d d d d d d d d d d d d d d d d d d d d d d d d d d d d d d d d d d f.I ) g.  ",
"~ ) ) h.d a i.G j.j.j.j.j.j.j.j.j.j.j.j.j.j.j.j.j.j.j.j.j.j.j.j.j.j.j.j.j.j.j.j.j.j.j.j.j.j.j.j.j.j.j.j.j.j.j.j.k.l.b a m.) )   ",
"n.) ) o.W p.) ) ) ) ) ) ) ) ) ) ) ) ) ) ) ) ) ) ) ) ) ) ) ) ) ) ) ) ) ) ) ) ) ) ) ) ) ) ) ) ) ) ) ) ) ) ) ) ) ) ) ) q.b r.) ) $ ",
"s.) t.u.d ) ) ) ) ) ) ) ) ) ) ) ) ) ) ) ) ) ) ) ) ) ) ) ) ) ) ) ) ) ) ) ) ) ) ) ) ) ) ) ) ) ) ) ) ) ) ) ) ) ) ) ) ) v.b D ) ) w.",
"w ) ~ o x.) ) ) ) ) ) ) ) ) ) ) ) ) ) ) ) ) ) ) ) ) ) ) ) ) ) ) ) ) ) ) ) ) ) ) ) ) ) ) ) ) ) ) ) ) ) ) ) ) ) ) ) ) y.b z.) ) % ",
") ) A.b x.) ) ) ) ) ) ) ) ) ) ) ) ) ) ) ) ) ) ) ) ) ) ) ) ) ) ) ) ) ) ) ) ) ) ) ) ) ) ) ) ) ) ) ) ) ) ) ) ) ) ) ) ) y.b p ) ) B.",
") ) C.b x.) ) ) ) ) ) ) ) ) ) ) ) ) ) ) ) ) ) ) ) ) ) ) ) ) ) ) ) ) ) ) ) ) ) ) ) ) ) ) ) ) ) ) ) ) ) ) ) ) ) ) ) ) y.b e ) ) @ ",
") ) D.b x.) ) ) ) ) ) ) ) ) ) ) ) ) ) ) ) ) ) ) ) ) ) ) ) ) ) ) ) ) ) ) ) ) ) ) ) ) ) ) ) ) ) ) ) ) ) ) ) ) ) ) ) ) y.b E.) ) F.",
") ) / b x.) ) ) ) ) ) ) ) ) ) ) ) ) ) ) ) ) ) ) ) ) ) ) ) ) ) ) ) ) ) ) ) ) ) ) ) ) ) ) ) ) ) ) ) ) ) ) ) ) ) ) ) ) y.b E.) ) , ",
") ) G.b x.) ) ) ) ) ) ) ) ) ) ) ) ) ) ) ) ) ) ) ) ) ) ) ) ) ) ) ) ) ) ) ) ) ) ) ) ) ) ) ) ) ) ) ) ) ) ) ) ) ) ) ) ) y.b H.) ) I.",
"I ) J.b x.) ) ) ) ) ) ) ) ) ) ) ) ) ) ) ) ) ) ) ) ) ) ) ) ) ) ) ) ) ) ) ) ) ) ) ) ) ) ) ) ) ) ) ) ) ) ) ) ) ) ) ) ) y.b b ) ) I.",
"K.) ] a x.) ) ) ) ) ) ) ) ) ) ) ) ) ) ) ) ) ) ) ) ) ) ) ) ) ) ) ) ) ) ) ) ) ) ) ) ) ) ) ) ) ) ) ) ) ) ) ) ) ) ) ) ) y.b L.) ) M.",
"L ) N.g H.) ) ) ) ) ) ) ) ) ) ) ) ) ) ) ) ) ) ) ) ) ) ) ) ) ) ) ) ) ) ) ) ) ) ) ) ) ) ) ) ) ) ) ) ) ) ) ) ) ) ) ) ) T d O.) ) P.",
"3.) ) Q.b R.S.N.N.N.N.N.N.N.N.N.N.N.N.N.N.N.N.N.N.N.N.N.N.N.N.N.N.N.N.N.N.N.N.N.N.N.N.N.N.N.N.N.N.N.N.N.N.N.N.N.T.U.b b V.) ) ~.",
"W.) ) X.d d Y.Q.Q.Q.Q.Q.Q.Q.Q.Q.Q.Q.Q.Q.Q.Q.Q.Q.Q.Q.Q.Q.Q.Q.Q.Q.Q.Q.Q.Q.Q.Q.Q.Q.Q.Q.Q.Q.Q.Q.Q.Q.Q.Q.Q.Q.Q.Q.Q.Q.Z.e d W `.) )   ",
" +) ) .+d d d d d d d d d d d d d d d d d d d d d d d d d d d d d d d d d d d d d d d d d d d d d d d d d d d d d d d ++) ) 5.  ",
"  ) ) P.Y.d d d d d d d d d d d d d d d d d d d d d d d d d d d d d d d d d d d d d d d d d d d d d d d d d d d d d d @+) ) &   ",
"  #+) ) $+d d d d d d d d d d d d d d d d d d d d d d d d d d d d d d d d d d d d d d d d d d d d d d d d d d d d d p %+) ) &+  ",
"  r.) ) *+c d d d d d d d d d d d d d d d d d d d d d d d d d d d d d d d d d d d d d d d d d d d d d d d d d d d d =+w ) -+    ",
"    ) ) ;+Q.d d d d d d d d d d d d d d d d d d d d d d d d d d d d d d d d d d d d d d d d d d d d d d d d d d d d >+) ) ,+    ",
"    a.) ) '+d d d d d d d d d d d d d d d d d d d d d d d d d d d d d d d d d d d d d d d d d d d d d d d d d d d )+!+) )       ",
"      ) ) 3.~+d d d d d d d d d d d d d d d d d d d d d d d d d d d d d d d d d d d d d d d d d d d d d d d d d d {+) ) ]+      ",
"      5 ) ) ^+d d d d d d d d d d d d d d d d d d d d d d d d d d d d d d d d d d d d d d d d d d d d d d d d d 0 /+) )         ",
"      (+) ) _+:+d d d d d d d d d d d d d d d d d d d d d d d d d d d d d d d d d d d d d d d d d d d d d d d c r ) ) <+        ",
"        [+) ) }+d d d d d d d d d d d d d d d d d d d d d d d d d d d d d d d d d d d d d d d d d d d d d d d f ) ) )           ",
"          ) ) ) |+d d d d d d d d d d d d d d d d d d d d d d d d d d d d d d d d d d d d d d d d d d d d d a ].) ) 1+          ",
"          >.) ) 2+9.d d d d d d d d d d d d d d d d d d d d d d d d d d d d d d d d d d d d d d d d d d d d r.) ) 3+            ",
"            r.) ) 4+Q.d d d d d d d d d d d d d d d d d d d d d d d d d d d d d d d d d d d d d d d d d c h ) ) )               ",
"              U.) ) 5+6+d d d d d d d d d d d d d d d d d d d d d d d d d d d d d d d d d d d d d d d d 7+) ) ) *+              ",
"                 .) ) 8+9+d d d d d d d d d d d d d d d d d d d d d d d d d d d d d d d d d d d d d c 0+) ) ) a+                ",
"                  ) ) ) ]+b+d d d d d d d d d d d d d d d d d d d d d d d d d d d d d d d d d d d c c+) ) ) d+                  ",
"                    ) ) ) N.b c d d d d d d d d d d d d d d d d d d d d d d d d d d d d d d d d Y.e+) ) ) f+                    ",
"                      }.) ) ) g+h+d d d d d d d d d d d d d d d d d d d d d d d d d d d d d c H.i+) ) ) j+                      ",
"                        I.) ) ) p.k+d d d d d d d d d d d d d d d d d d d d d d d d d d d =+/ ) ) ) ) l+                        ",
"                          x ) ) ) ) m+n+p d d d d d d d d d d d d d d d d d d d d d d R o+S.) ) ) !                             ",
"                              p+) ) ) ) q+r+s+p d d d d d d d d d d d d d d d c o 0 t+u+) ) ) ) v+                              ",
"                                w+x+) ) ) ) S.y+z+9+Q.a b c c c c c c H.Y.0 A+t+B+) ) ) ) ) C+                                  ",
"                                    D+E+) ) ) ) ) ) n.F+m G.G+H+I+J+k ] ;+..) ) ) ) ) K+G.                                      ",
"                                          @.L+) ) ) ) ) ) ) ) ) ) ) ) ) ) ) ) ) ) M+N+                                          ",
"                                                5 %.B+O+) ) ) ) ) ) ) ) P+, Q+C.                                                "};
