/* XPM */
static char * warning64x64_xpm[] = {
"64 64 656 2",
"  	c #FFFFFF",
". 	c #F8F8F8",
"+ 	c #F9F9F9",
"@ 	c #FAFAFA",
"# 	c #FBFBFB",
"$ 	c #FCFCFC",
"% 	c #FDFDFD",
"& 	c #FEFEFE",
"* 	c #F7F7F7",
"= 	c #FDF9B5",
"- 	c #FDF685",
"; 	c #FEF586",
"> 	c #FDF9B3",
", 	c #FEFFFF",
"' 	c #FCFABC",
") 	c #FCEE26",
"! 	c #FDEE19",
"~ 	c #FDEE21",
"{ 	c #FDED1A",
"] 	c #FDEE27",
"^ 	c #FCFAB8",
"/ 	c #FCFABE",
"( 	c #FDED16",
"_ 	c #FEEF21",
": 	c #FCEE19",
"< 	c #FDFAC1",
"[ 	c #FEFFFC",
"} 	c #FCEE27",
"| 	c #F9ED23",
"1 	c #918A18",
"2 	c #928A18",
"3 	c #FBF023",
"4 	c #FCED21",
"5 	c #FDEE22",
"6 	c #FDEE24",
"7 	c #FCF687",
"8 	c #FDEE23",
"9 	c #FDEE20",
"0 	c #FFF722",
"a 	c #1B1A0B",
"b 	c #000000",
"c 	c #000001",
"d 	c #161507",
"e 	c #FFF324",
"f 	c #FCF57D",
"g 	c #FDFDE7",
"h 	c #FFF326",
"i 	c #7E7A18",
"j 	c #898217",
"k 	c #FFEF25",
"l 	c #FDEE1C",
"m 	c #FEFDE8",
"n 	c #FCF258",
"o 	c #F0E224",
"p 	c #020307",
"q 	c #020207",
"r 	c #F6EB24",
"s 	c #FCF25D",
"t 	c #FFFFFE",
"u 	c #FEFBCB",
"v 	c #FDED19",
"w 	c #FFF421",
"x 	c #5E5912",
"y 	c #010102",
"z 	c #060606",
"A 	c #070707",
"B 	c #030303",
"C 	c #4E4A10",
"D 	c #FFF922",
"E 	c #FDEE18",
"F 	c #FDFAC3",
"G 	c #FBEF33",
"H 	c #FDED21",
"I 	c #D5CB21",
"J 	c #000002",
"K 	c #616017",
"L 	c #625D16",
"M 	c #D0C51F",
"N 	c #FCF03A",
"O 	c #FCF797",
"P 	c #FDEE1E",
"Q 	c #FFF823",
"R 	c #282509",
"S 	c #010000",
"T 	c #151507",
"U 	c #FFF427",
"V 	c #FFF72A",
"W 	c #0B0B05",
"X 	c #2D2B0C",
"Y 	c #FFFC23",
"Z 	c #FDEE1B",
"` 	c #FCF8A6",
" .	c #FEFFF9",
"..	c #ABA21B",
"+.	c #AAA220",
"@.	c #FEEF22",
"#.	c #FDED23",
"$.	c #B6AE21",
"%.	c #A39B1C",
"&.	c #FEFEF8",
"*.	c #FBF478",
"=.	c #FFF924",
"-.	c #0A0904",
";.	c #313010",
">.	c #FFFB24",
",.	c #FFF624",
"'.	c #393810",
").	c #0D0D05",
"!.	c #FEF023",
"~.	c #FDF475",
"{.	c #FDFCDE",
"].	c #6F6914",
"^.	c #000006",
"/.	c #E1D523",
"(.	c #D8CE21",
"_.	c #000005",
":.	c #827B17",
"<.	c #FFF120",
"[.	c #FEFDE4",
"}.	c #FCF254",
"|.	c #EADD22",
"1.	c #070708",
"2.	c #5F5A12",
"3.	c #FFF422",
"4.	c #FFF522",
"5.	c #645E16",
"6.	c #050506",
"7.	c #EDE322",
"8.	c #FCF14B",
"9.	c #FDED17",
"0.	c #FFFA23",
"a.	c #4A470F",
"b.	c #050505",
"c.	c #010106",
"d.	c #F6EC23",
"e.	c #F7E922",
"f.	c #040505",
"g.	c #48440E",
"h.	c #FFF523",
"i.	c #FDF9B7",
"j.	c #FCEF2B",
"k.	c #C2B81F",
"l.	c #05060F",
"m.	c #0F0F0F",
"n.	c #968F1A",
"o.	c #FFF121",
"p.	c #848017",
"q.	c #CCC121",
"r.	c #FAEB26",
"s.	c #FCED22",
"t.	c #FCEF35",
"u.	c #FDF792",
"v.	c #FDEE1F",
"w.	c #34321A",
"x.	c #282928",
"y.	c #141414",
"z.	c #1B1A08",
"A.	c #FFFA24",
"B.	c #191807",
"C.	c #292919",
"D.	c #FFF929",
"E.	c #F8EC31",
"F.	c #FBED22",
"G.	c #FCF696",
"H.	c #FEFEF7",
"I.	c #FCEE1D",
"J.	c #FEEE20",
"K.	c #ABA425",
"L.	c #222229",
"M.	c #1A1A1A",
"N.	c #B7B01E",
"O.	c #F2E422",
"P.	c #C0B61E",
"Q.	c #171717",
"R.	c #202023",
"S.	c #ABA545",
"T.	c #FEF01E",
"U.	c #FCEE1C",
"V.	c #FEFDF2",
"W.	c #FCF366",
"X.	c #F7EC2F",
"Y.	c #1B1B1E",
"Z.	c #121212",
"`.	c #010100",
" +	c #433F0E",
".+	c #FFF923",
"++	c #C0B81E",
"@+	c #211F09",
"#+	c #211F08",
"$+	c #C3BA20",
"%+	c #FEEF20",
"&+	c #FFF622",
"*+	c #3B380C",
"=+	c #131313",
"-+	c #2A2A2A",
";+	c #3B3C37",
">+	c #FBEF46",
",+	c #FAEC37",
"'+	c #FDF473",
")+	c #FDFBD3",
"!+	c #FDEE1A",
"~+	c #FDEF28",
"{+	c #706B1E",
"]+	c #202021",
"^+	c #010101",
"/+	c #E2D621",
"(+	c #DCD022",
"_+	c #E0D722",
":+	c #E1D721",
"<+	c #0D0D18",
"[+	c #827D31",
"}+	c #FFF420",
"|+	c #FDED13",
"1+	c #FDFCDF",
"2+	c #FCF148",
"3+	c #FBED24",
"4+	c #E4D934",
"5+	c #14151B",
"6+	c #655F14",
"7+	c #FFF021",
"8+	c #696412",
"9+	c #575110",
"0+	c #FFF521",
"a+	c #FFF221",
"b+	c #736E17",
"c+	c #161618",
"d+	c #181818",
"e+	c #DDD321",
"f+	c #FDF041",
"g+	c #FDF9B2",
"h+	c #FDED18",
"i+	c #FFFA21",
"j+	c #3C3B15",
"k+	c #040402",
"l+	c #060603",
"m+	c #FFF524",
"n+	c #47450C",
"o+	c #302D0A",
"p+	c #F9EB22",
"q+	c #040401",
"r+	c #46420D",
"s+	c #FFF623",
"t+	c #FEFFFD",
"u+	c #FCEF29",
"v+	c #B5AD1C",
"w+	c #A0981A",
"x+	c #FEEE21",
"y+	c #FFF327",
"z+	c #54510E",
"A+	c #3D3A0C",
"B+	c #FFFA27",
"C+	c #948E1A",
"D+	c #C2BA1F",
"E+	c #FDEE26",
"F+	c #FDEF2A",
"G+	c #FCF68E",
"H+	c #FDEE1D",
"I+	c #FFF726",
"J+	c #1D1C08",
"K+	c #201E09",
"L+	c #FFF724",
"M+	c #FFF020",
"N+	c #726D1A",
"O+	c #635F16",
"P+	c #23210A",
"Q+	c #161508",
"R+	c #FFF824",
"S+	c #FEEE26",
"T+	c #FCF683",
"U+	c #FEFDF0",
"V+	c #FDEE17",
"W+	c #FFF023",
"X+	c #8E8918",
"Y+	c #CCC220",
"Z+	c #908917",
"`+	c #060609",
" @	c #08080A",
".@	c #827F16",
"+@	c #C4B91E",
"@@	c #8F8718",
"#@	c #FEF021",
"$@	c #FEFDEB",
"%@	c #FDF25C",
"&@	c #F3E723",
"*@	c #000003",
"=@	c #514E10",
"-@	c #B5AC1C",
";@	c #090909",
">@	c #0A0A0A",
",@	c #ADA91C",
"'@	c #413E0C",
")@	c #050503",
"!@	c #FAED23",
"~@	c #FEEF26",
"{@	c #FBF466",
"]@	c #FDFBCE",
"^@	c #FFF222",
"/@	c #676212",
"(@	c #E8DB22",
"_@	c #D1C71F",
":@	c #D7CE20",
"<@	c #F2E624",
"[@	c #5C5612",
"}@	c #FEEE1B",
"|@	c #FCF13F",
"1@	c #FDEF29",
"2@	c #FCED20",
"3@	c #DBD422",
"4@	c #757116",
"5@	c #EADE21",
"6@	c #080808",
"7@	c #FFF526",
"8@	c #7B7516",
"9@	c #D6CB20",
"0@	c #FDEF26",
"a@	c #FCF044",
"b@	c #FCF7A1",
"c@	c #FCEF1F",
"d@	c #FFFA28",
"e@	c #2C2909",
"f@	c #FFF625",
"g@	c #050501",
"h@	c #0A0909",
"i@	c #090906",
"j@	c #FFFB23",
"k@	c #FDF223",
"l@	c #070706",
"m@	c #3A380C",
"n@	c #FFF727",
"o@	c #FEFFFB",
"p@	c #B0A71C",
"q@	c #010107",
"r@	c #A39B1B",
"s@	c #FFFF24",
"t@	c #1F1E0F",
"u@	c #312F10",
"v@	c #FFF621",
"w@	c #ACA51C",
"x@	c #B0AA1E",
"y@	c #FCEE22",
"z@	c #FCF583",
"A@	c #121107",
"B@	c #020202",
"C@	c #232209",
"D@	c #FFFD23",
"E@	c #FFF927",
"F@	c #57520F",
"G@	c #FFF227",
"H@	c #302E0B",
"I@	c #030302",
"J@	c #100F05",
"K@	c #FFF424",
"L@	c #FDF47C",
"M@	c #FEFDE3",
"N@	c #FFF321",
"O@	c #797417",
"P@	c #D9CF25",
"Q@	c #FDED20",
"R@	c #6A6412",
"S@	c #736C14",
"T@	c #CEC423",
"U@	c #8A8418",
"V@	c #FFEF22",
"W@	c #FEFDE9",
"X@	c #FCF257",
"Y@	c #EEE023",
"Z@	c #5A5510",
"`@	c #908E19",
" #	c #9A9118",
".#	c #FBEB21",
"+#	c #FFF925",
"@#	c #534F11",
"##	c #F4EA24",
"$#	c #FCF256",
"%#	c #FDFAC9",
"&#	c #595512",
"*#	c #F2E724",
"=#	c #FCED23",
"-#	c #FBEC23",
";#	c #BDB71F",
">#	c #BCB21C",
",#	c #FCED2A",
"'#	c #F5E92F",
")#	c #F4E622",
"!#	c #020303",
"~#	c #4D480F",
"{#	c #FDFABE",
"]#	c #FDEF31",
"^#	c #D0C621",
"/#	c #8C8619",
"(#	c #FCED26",
"_#	c #FBEC2C",
":#	c #F9EC36",
"<#	c #F1E424",
"[#	c #DBCF1F",
"}#	c #FAEC27",
"|#	c #F6EA41",
"1#	c #F9EC38",
"2#	c #7F7916",
"3#	c #D1C51E",
"4#	c #FCF03B",
"5#	c #FEFEFF",
"6#	c #FDF798",
"7#	c #29270A",
"8#	c #18170A",
"9#	c #FFF223",
"0#	c #FCED24",
"a#	c #FAED2F",
"b#	c #FAEE3F",
"c#	c #F9EF47",
"d#	c #FEEF1E",
"e#	c #F8EB35",
"f#	c #FAEC25",
"g#	c #F8EC43",
"h#	c #F6E93C",
"i#	c #0F0E06",
"j#	c #28250A",
"k#	c #FFFE24",
"l#	c #FDED1B",
"m#	c #FDF7A1",
"n#	c #FFFFFA",
"o#	c #ABA21C",
"p#	c #ACA61D",
"q#	c #FBED29",
"r#	c #FBF04B",
"s#	c #FAEE4F",
"t#	c #FAEF3F",
"u#	c #FAEC35",
"v#	c #FEF124",
"w#	c #FEF123",
"x#	c #FBEC28",
"y#	c #F6EB3E",
"z#	c #F6E92D",
"A#	c #B9B01E",
"B#	c #9C961B",
"C#	c #FDFEF6",
"D#	c #FCF371",
"E#	c #37350E",
"F#	c #FFFB22",
"G#	c #FCEE21",
"H#	c #F9EB33",
"I#	c #FDEF1E",
"J#	c #FAEF44",
"K#	c #FAEE3D",
"L#	c #E4DA22",
"M#	c #868517",
"N#	c #8A8817",
"O#	c #ECE023",
"P#	c #F9EC24",
"Q#	c #F8EA2B",
"R#	c #F6EA3E",
"S#	c #37340C",
"T#	c #0D0C05",
"U#	c #FDF023",
"V#	c #FCF476",
"W#	c #FAFAFE",
"X#	c #FEFCDA",
"Y#	c #706914",
"Z#	c #DDD121",
"`#	c #F7EA31",
" $	c #FAEC36",
".$	c #787316",
"+$	c #8A8519",
"@$	c #F7EA35",
"#$	c #F5EA37",
"$$	c #D9D022",
"%$	c #7E7817",
"&$	c #FCED17",
"*$	c #FDFCE1",
"=$	c #FBF251",
"-$	c #EBDE22",
";$	c #5E5A11",
">$	c #AEA51B",
",$	c #C2BA1E",
"'$	c #F8EA27",
")$	c #6D6815",
"!$	c #E9DD21",
"~$	c #FDFABD",
"{$	c #464315",
"]$	c #010203",
"^$	c #F9EE25",
"/$	c #FEEF27",
"($	c #FFF426",
"_$	c #4B470F",
":$	c #4C470D",
"<$	c #FFF725",
"[$	c #F6E823",
"}$	c #030403",
"|$	c #4C4913",
"1$	c #FCFAB6",
"2$	c #FCEF2A",
"3$	c #BCB41D",
"4$	c #99911A",
"5$	c #FDEF21",
"6$	c #343212",
"7$	c #35320D",
"8$	c #FCEF28",
"9$	c #878418",
"0$	c #CDC31F",
"a$	c #FCEF31",
"b$	c #FDF693",
"c$	c #222009",
"d$	c #020201",
"e$	c #21200E",
"f$	c #686315",
"g$	c #716C19",
"h$	c #FDEF27",
"i$	c #1F1E0C",
"j$	c #1D1B09",
"k$	c #FCF68F",
"l$	c #FEFEF6",
"m$	c #FCED19",
"n$	c #9D941B",
"o$	c #BDB41F",
"p$	c #FDED26",
"q$	c #FEEE27",
"r$	c #E7DA22",
"s$	c #F7EB23",
"t$	c #FEEE25",
"u$	c #BFB420",
"v$	c #938C1A",
"w$	c #FFEF21",
"x$	c #FEFEF0",
"y$	c #FCF361",
"z$	c #F7EC23",
"A$	c #010104",
"B$	c #4A4610",
"C$	c #DBCF21",
"D$	c #38360F",
"E$	c #413E10",
"F$	c #E4D820",
"G$	c #FEEE24",
"H$	c #FDEF22",
"I$	c #FFF723",
"J$	c #3B390D",
"K$	c #070705",
"L$	c #FFF123",
"M$	c #FCF470",
"N$	c #FDFCD3",
"O$	c #6B6514",
"P$	c #E1D520",
"Q$	c #FDEF25",
"R$	c #FFFB2A",
"S$	c #FFFC2D",
"T$	c #FEEF24",
"U$	c #E7DD24",
"V$	c #686414",
"W$	c #FCED12",
"X$	c #FCF46C",
"Y$	c #E3D922",
"Z$	c #534E10",
"`$	c #FFFE22",
" %	c #FFF322",
".%	c #FFF323",
"+%	c #FFF425",
"@%	c #FFF428",
"#%	c #FFF320",
"$%	c #656013",
"%%	c #DBD020",
"&%	c #FCF25F",
"*%	c #FCEF2F",
"=%	c #5C5710",
"-%	c #040403",
";%	c #57530F",
">%	c #565114",
",%	c #54500F",
"'%	c #554F0F",
")%	c #55500F",
"!%	c #555014",
"~%	c #544F0E",
"{%	c #555012",
"]%	c #555011",
"^%	c #55500E",
"/%	c #545011",
"(%	c #554F0E",
"_%	c #555115",
":%	c #57530E",
"<%	c #090904",
"[%	c #625E11",
"}%	c #FDEF2E",
"|%	c #FFF721",
"1%	c #504C0F",
"2%	c #050504",
"3%	c #59550F",
"4%	c #FDEF2B",
"5%	c #FDF254",
"6%	c #D0C720",
"7%	c #070808",
"8%	c #C9BF1E",
"9%	c #FCF146",
"0%	c #FDF9B0",
"a%	c #E3D620",
"b%	c #847E16",
"c%	c #827D19",
"d%	c #7F7A16",
"e%	c #807A16",
"f%	c #817B17",
"g%	c #807B15",
"h%	c #7F7815",
"i%	c #807B18",
"j%	c #817C18",
"k%	c #807A15",
"l%	c #807B16",
"m%	c #827C18",
"n%	c #827C17",
"o%	c #7F7A14",
"p%	c #837D1B",
"q%	c #837E17",
"r%	c #E2D521",
"s%	c #FEEE1A",
"t%	c #F5F1A9",
"u%	c #FDF14D",
"v%	c #FDED22",
"w%	c #FBEC22",
"x%	c #FCED25",
"y%	c #F5E830",
"z%	c #F8EE5E",
"A%	c #FCFCFF",
"B%	c #F7EF68",
"C%	c #F8EB32",
"D%	c #FCEE1F",
"E%	c #F7EA3C",
"F%	c #F9EC29",
"G%	c #F9EB34",
"H%	c #FCEE23",
"I%	c #FEEE19",
"J%	c #F7EF69",
"K%	c #F9F9FB",
"L%	c #FCFDFF",
"M%	c #FAF9D5",
"N%	c #FEF899",
"O%	c #F8F28E",
"P%	c #FEF785",
"Q%	c #FDF786",
"R%	c #FBF483",
"S%	c #F7F291",
"T%	c #F7F195",
"U%	c #FBF587",
"V%	c #FDF785",
"W%	c #FDF684",
"X%	c #F9F28E",
"Y%	c #FAF486",
"Z%	c #FBF58F",
"`%	c #FEF783",
" &	c #F8F28F",
".&	c #FDF79A",
"+&	c #F7F6D6",
"@&	c #F8F9FF",
"#&	c #FCFCFE",
"$&	c #FAFAFC",
"%&	c #F9F9FC",
"&&	c #F8F8FA",
"*&	c #FDFDFF",
"=&	c #FBFBFD",
"-&	c #F9F9FA",
";&	c #F6F6F6",
"                                                                                                                                ",
"              .                                                                       +                                         ",
"            @ #                             $ # %                                   % +                             % # %       ",
"          # . +                           $ % & # %                               % + +                           & # & # $     ",
"        @ . @                           % $ # #   .                             # * .                             # % #   @ &   ",
"      + @ +                             & % # @ $ $         = - ; > ,         $ + +                             & $ $ % # #     ",
"    + @ +                               & @   $ $       ' ) ! ~ ~ { ] ^     @ + . &                               +   $ $       ",
"  % . +                                   & . #       / ( ~ ~ _ _ ~ ~ : <   . *                                     @ @         ",
"    #                                               [ } ~ ~ | 1 2 3 4 5 6   # &                                                 ",
"                                                    7 8 9 0 a b c d e ~ 6 f                                                     ",
"                                                  g ( 5 h i b b b b j k 5 l m                                                   ",
"                                                  n ~ ~ o p b b b b q r ~ ~ s                                                   ",
"                                              t u v ~ w x y z b b A B C D ~ E F                                                 ",
"                                                G 5 H I b b J K L y b c M ~ ~ N                                                 ",
"                                              O P ~ Q R S b T U V W b b X Y ~ Z `                                               ",
"                                             .6 ~ ~ ..b b b +.@.#.$.b b b %._ ~ P &.                                            ",
"                                            *.9 ~ =.-.b b ;.>.~ ~ ,.'.b b ).!.~ 9 ~.                                            ",
"                                          {.( ~ w ].b b ^./.~ ~ ~ H (._.b b :.<.~ { [.                                          ",
"                                          }.~ ~ |.c b 1.2.3.~ ~ ~ ~ 4.5.6.b c 7.H ~ 8.                                          ",
"                                        F 9.~ 0.a.b.y c.d.H ~ ~ ~ ~ ~ e.f.b b g.h.~ Z i.                                  @     ",
"        % % &                           j.~ ~ k.l.m.b n._ ~ ~ ~ ~ ~ ~ o.p.b b b q.r.s.t.                                & *     ",
"      # $ % @ &                       u.v.~ 4.w.x.y.z.h.~ ~ ~ ~ ~ ~ ~ ~ A.B.b z C.D.E.F.G.                            % . .     ",
"    % $ # @   +                     H.I.~ J.K.L.M.b N.~ ~ ~ 3.O.O.3._ ~ ~ P.J Q.R.S.T.E.U.V.                        & . * %     ",
"    % & # # $ #                     W.~ 9 X.Y.Z.`. +.+~ o.++@+c c #+$+%+~ &+*+=+-+;+>+,+9 '+                      % . . &       ",
"    & @   $ $                     )+!+9 ~+{+]+^+c /+~ ~ (+c b b b b c _+H H :+<+b ]+[+}+~ |+1+t                 % + + %         ",
"      & . $                     , 2+~ 3+4+5+b c 6+3.~ 7+8+b b b b b b 9+0+~ a+b+c+d+b e+H 5 f+                  + . &           ",
"                                g+h+~ i+j+k+b l+m+~ 5 3.n+b b b b b b o+Y ~ ~ p+q+b b r+s+~ l g+                # %             ",
"                              t+u+~ 6 v+b b b w+x+~ ~ y+z+b b b b b b A+B+~ ~ 7+C+b b b D+E+~ F+,                               ",
"                              G+H+8 I+J+b b K+L+~ ~ ~ M+N+b b b b b b O+3.~ ~ ~ >.P+b b Q+R+S+P T+                              ",
"                            U+V+6 W+X+b b b Y+H ~ ~ ~ _ Z+`+^+b b b  @.@x+~ ~ ~ ~ +@b b b @@#@S+P $@                            ",
"                            %@6 8 &@*@b b =@0+~ ~ ~ ~ ~ -@b ;@^+b >@b ,@H ~ ~ ~ ~ =.'@b b )@!@~ ~@{@                            ",
"                          ]@H+8 ^@/@b b c (@~ ~ ~ ~ ~ ~ _@b b ;@;@b b :@~ ~ ~ ~ ~ ~ <@b b c [@&+~ }@]@                          ",
"                          |@1@2@3@b b b 4@}+~ ~ ~ ~ ~ ~ 5@b b 6@;@^+b 7@~ ~ ~ ~ ~ ~ 7+8@b b b 9@9 0@a@                          ",
"                        b@c@8 d@e@b b ).,.~ ~ ~ ~ ~ ~ ~ f@g@h@b b >@i@j@~ ~ ~ ~ ~ ~ ~ k@l@b b m@n@8 Z g+                        ",
"                      o@u+~ ~ p@q@b b r@_ ~ ~ ~ ~ ~ ~ ~ s@t@b b b b u@v@~ ~ ~ ~ ~ ~ ~ x+w@b b _.x@x+~ y@[                       ",
"                      z@v.~ =.A@B@l@C@D@~ ~ ~ ~ ~ ~ ~ ~ E@ +b b b b F@G@~ ~ ~ ~ ~ ~ ~ ~ &+H@b.I@J@K@~ 9 L@                      ",
"                    M@9.~ N@O@b b *@P@Q@~ ~ ~ ~ ~ ~ ~ S+a+R@b b b b S@7+] ~ ~ ~ ~ ~ ~ ~ ~ T@c b b U@V@~ Z W@                    ",
"              #     X@~ ~ Y@b b b Z@e ~ ~ ~ ~ ~ ~ ~ 8 ~ H `@b b b b  #_ 9 8 ~ ~ ~ ~ ~ .#~ +#@#b b c ##H 5 $#                    ",
"            $ .   %#E ~ 0+&#b b c *#~ ~ ~ ~ =#-#H ~ ~ ~ H ;#b b b b >#~ ~ ~ ~ ~ ~ ~ ,#'#9 ~ )#!#b c ~#0 ~ v {#      & $ &       ",
"          # . + , ]#5 ~ ^#b b b /#7+~ ~ ~ (#E._#:#6 ~ ~ ~ <#b b b b [#~ ~ ~ ~ ~ ~ }#|#1#9 ~ a+2#b b c 3#~ ~ 4#      + $ # %     ",
"        # . . 5#6#v.~ 4.7#b b 8#9#~ ~ ~ 0#a#b#c#d#e#v.~ ~ 0.c b b b 3+~ ~ ~ ~ ~ f#g#h#s.~ ~ ~ 0.i#b b j#k#~ l#m#  + $ % & $ &   ",
"      # + .   n#y@~ ~ o#b b b p#_ ~ ~ ~ 0#q#r#s#t#u#9 ~ ~ ~ v#!.!.w#x+~ ~ ~ ~ x#y#z#6 ~ ~ ~ ~ H A#b b b B#7+~ U.C## $ % # @     ",
"    # + *     D#9 ~ L+)@b b E#F#~ ~ ~ ~ G#H#I#J#K#9 ~ ~ ~ ^@L#M#N#O#o.~ ~ ~ P#Q#R#6 ~ ~ ~ ~ ~ ~ &+S#c b T#U#~ 9 V#W#  $ %       ",
"  & . *     X#: ~ N@Y#b b c Z#~ ~ ~ ~ ~ ~ (#`# $v.~ ~ ~ &+.$b c c b +$3.~ 5 @$#$9 ~ ~ ~ ~ ~ ~ ~ 4 $$b b b %$^@~ &$*$+ @         ",
"    +       =$~ 8 -$c b b ;$0+~ ~ ~ ~ ~ ~ ~ ~ ~ ~ ~ ~ x+>$b b b b b b ,$H ~ '$(#~ ~ ~ ~ ~ ~ ~ ~ ~ w )$b b c !$H 5 2+            ",
"          ~$9.~ >.{$b b ]$^$~ ~ ~ 9 /$~ ~ ~ ~ ~ ~ ~ 5 ($_$b b b b b b :$<$~ ~ ~ ~ ~ ~ ~ ~ 0@9 ~ ~ ~ [$}$b b |$3.~ l#1$          ",
"        , 2$5 ~ 3$b z b 4$5$~ ~ ~ /$9 ~ ~ ~ ~ ~ ~ ~ ~ 0 6$b b b b b b 7$>.~ ~ ~ ~ ~ ~ ~ ~ 9 8$9 ~ ~ 7+9$b z J 0$H ~ a$          ",
"        b$P ~ 0 c$c d$e$h.~ ~ 9 /$~ ~ ~ ~ ~ ~ ~ ~ ~ ~ <.f$6@b b b b b.g$o.~ ~ ~ ~ ~ ~ ~ ~ ~ 9 h$9 ~ ~ 0.i$I@b j$j@~ H+k$        ",
"      l$m$~ _ n$b b b o$p$9 9 q$9 ~ ~ ~ ~ ~ ~ ~ ~ ~ ~ ~ r$J ;@b b b.1.s$~ ~ ~ ~ ~ ~ ~ ~ ~ ~ ~ 9 h$~ ~ t$u$c b b v$w$~ v.x$      ",
"      y$~ ~ z$A$b b B$Q 5 0@q$~ ~ ~ ~ ~ ~ ~ ~ ~ ~ ~ ~ ~ #@C$D$^.J E$F$H ~ ~ ~ ~ ~ ~ ~ ~ ~ ~ ~ ~ ~ 8$G$H$I$J$`.b K$L$~ 9 M$      ",
"    N$}@~ a+O$b b c P$~ ~ h$Q$~ ~ ~ ~ ~ ~ ~ ~ ~ ~ ~ ~ ~ ~ ~ 0 R$S$&+~ ~ ~ ~ ~ ~ ~ ~ ~ ~ ~ ~ ~ ~ ~ T$8$9 H U$c b b V$4.~ W$X#t   ",
"    X$~ ~ Y$b b b Z$`$N@U w  %($N@w w w w w w w w w w w w N@e .%N@U N@w w w w w w w w w w w w N@+%.%N@@%#%0 $%b b c %%~ ~ &%    ",
"    *%~ 3.=%b b b -%;%>%,%'%)%)%!%~%)%)%)%)%)%)%)%)%)%)%'%{%]%^%)%'%!%~%)%)%)%)%)%)%)%)%)%)%'%{%/%)%)%(%_%:%<%b b b [%o.~ }%    ",
"    8$~ |%1%^+b b b 6@`.b b b b ^+A b b b b b b b b b b b.2%b b b b B@;@b b b b b b b b b b z I@b b b b b ;@b b b b 3%a+~ 4%    ",
"    5%5 4 6%J b b 1.^+b b b b b b B@z b b b b b b b b b.b.b b b b b b d$7%b b b b b b b b b.B b b b b b b b 1.b b c 8%~ ~ 9%    ",
"    0%Z ~ w$a%b%c%d%e%e%e%e%e%e%e%e%d%f%e%e%e%e%g%h%i%j%k%e%e%e%e%e%e%e%l%m%e%e%e%e%e%e%d%n%e%e%e%e%e%e%e%e%o%p%q%r%M+~ s%t%    ",
"      u%v%w%G#~ 9 ~ ~ ~ ~ ~ ~ ~ ~ ~ ~ ~ ~ ~ ~ 9 x%y%9 ~ ~ ~ ~ ~ ~ ~ ~ ~ ~ 9 ~ ~ 4 3+2@~ 9 ~ ~ ~ ~ ~ ~ ~ ~ ~ ~ 9 9 ~ ~ H+z%A%    ",
"      5#B%x#C%D%9 9 9 9 9 9 9 9 9 9 9 9 9 9 9 q#E%e#v.9 9 9 9 9 9 9 9 9 9 9 9 9 C%F%G%H%9 9 9 9 9 9 9 9 9 9 9 9 v.P I%J%K%@     ",
"    % # L%M%N%O%P%- - - - - - - - - - - - Q%R%S%T%U%V%- - - - - - - - - - - W%X%Y%Z%`% &V%- - - - - - - - - - - - .&+&@&@       ",
"    $ & % $ #&$&                          A%%&&&5#                          5##&*&*&#&=&                          -&@ +         ",
"    % $ & # $                           $ + * &                               + & $ %                           . @ @           ",
"      $ + #                             * ;&                                  & @ @                           & . .             ",
"        &                               @ %                                                                     $               ",
"                                                                                                                                "};
